<mxfile host="app.diagrams.net" agent="Mozilla/5.0 (Windows NT 10.0; Win64; x64) AppleWebKit/537.36 (KHTML, like Gecko) Chrome/136.0.0.0 Safari/537.36 Edg/136.0.0.0" version="26.2.14" pages="7">
  <diagram name="Картины" id="BzOXJY9xKDYm4pz-T_iJ">
    <mxGraphModel dx="1034" dy="570" grid="1" gridSize="10" guides="1" tooltips="1" connect="1" arrows="1" fold="1" page="1" pageScale="1" pageWidth="827" pageHeight="1169" math="0" shadow="0">
      <root>
        <mxCell id="0" />
        <mxCell id="1" parent="0" />
        <mxCell id="eD3-31skWjXKXXf1p_MW-3" value="Подсолнухи&lt;div&gt;1887&lt;/div&gt;" style="whiteSpace=wrap;html=1;aspect=fixed;" parent="1" vertex="1">
          <mxGeometry x="100" y="130" width="120" height="120" as="geometry" />
        </mxCell>
        <mxCell id="ZOqEBZI1n-dfwNYtnNvd-1" value="1" style="rounded=0;whiteSpace=wrap;html=1;" parent="1" vertex="1">
          <mxGeometry x="130" y="130" width="60" height="30" as="geometry" />
        </mxCell>
        <mxCell id="ZOqEBZI1n-dfwNYtnNvd-2" value="Ночное кафе&lt;div&gt;1888&lt;/div&gt;" style="whiteSpace=wrap;html=1;aspect=fixed;" parent="1" vertex="1">
          <mxGeometry x="280" y="130" width="120" height="120" as="geometry" />
        </mxCell>
        <mxCell id="ZOqEBZI1n-dfwNYtnNvd-3" value="2" style="rounded=0;whiteSpace=wrap;html=1;" parent="1" vertex="1">
          <mxGeometry x="310" y="130" width="60" height="30" as="geometry" />
        </mxCell>
        <mxCell id="6JdyeAebKGxNdJowQ69Q-2" value="&lt;div&gt;Супрематическая композиция&lt;/div&gt;&lt;div&gt;1916&lt;/div&gt;" style="whiteSpace=wrap;html=1;aspect=fixed;" parent="1" vertex="1">
          <mxGeometry x="470" y="130" width="120" height="120" as="geometry" />
        </mxCell>
        <mxCell id="6JdyeAebKGxNdJowQ69Q-3" value="3" style="rounded=0;whiteSpace=wrap;html=1;" parent="1" vertex="1">
          <mxGeometry x="500" y="130" width="60" height="30" as="geometry" />
        </mxCell>
        <mxCell id="6JdyeAebKGxNdJowQ69Q-4" value="Золотые рыбки&lt;br&gt;1902" style="whiteSpace=wrap;html=1;aspect=fixed;" parent="1" vertex="1">
          <mxGeometry x="100" y="340" width="120" height="120" as="geometry" />
        </mxCell>
        <mxCell id="6JdyeAebKGxNdJowQ69Q-5" value="4" style="rounded=0;whiteSpace=wrap;html=1;" parent="1" vertex="1">
          <mxGeometry x="130" y="340" width="60" height="30" as="geometry" />
        </mxCell>
        <mxCell id="6JdyeAebKGxNdJowQ69Q-6" value="Розовый сад&lt;br&gt;1912" style="whiteSpace=wrap;html=1;aspect=fixed;" parent="1" vertex="1">
          <mxGeometry x="290" y="340" width="120" height="120" as="geometry" />
        </mxCell>
        <mxCell id="6JdyeAebKGxNdJowQ69Q-7" value="5" style="rounded=0;whiteSpace=wrap;html=1;" parent="1" vertex="1">
          <mxGeometry x="320" y="340" width="60" height="30" as="geometry" />
        </mxCell>
        <mxCell id="6JdyeAebKGxNdJowQ69Q-8" value="Герника&lt;br&gt;1937" style="whiteSpace=wrap;html=1;aspect=fixed;" parent="1" vertex="1">
          <mxGeometry x="480" y="340" width="120" height="120" as="geometry" />
        </mxCell>
        <mxCell id="6JdyeAebKGxNdJowQ69Q-9" value="6" style="rounded=0;whiteSpace=wrap;html=1;" parent="1" vertex="1">
          <mxGeometry x="510" y="340" width="60" height="30" as="geometry" />
        </mxCell>
        <mxCell id="hskE8-L3AUAkjLw2AAP8-1" value="&lt;span style=&quot;color: rgb(32, 33, 34); text-align: start; background-color: rgb(255, 255, 255);&quot;&gt;&lt;font face=&quot;Helvetica&quot;&gt;Автопортрет с отрезанным ухом и трубкой&lt;br&gt;1889&lt;/font&gt;&lt;/span&gt;" style="whiteSpace=wrap;html=1;aspect=fixed;" parent="1" vertex="1">
          <mxGeometry x="100" y="510" width="120" height="120" as="geometry" />
        </mxCell>
        <mxCell id="hskE8-L3AUAkjLw2AAP8-2" value="7" style="rounded=0;whiteSpace=wrap;html=1;" parent="1" vertex="1">
          <mxGeometry x="130" y="510" width="60" height="30" as="geometry" />
        </mxCell>
      </root>
    </mxGraphModel>
  </diagram>
  <diagram id="0UNuWQsB-AA3zbyI7CVP" name="Авторы">
    <mxGraphModel dx="1034" dy="570" grid="1" gridSize="10" guides="1" tooltips="1" connect="1" arrows="1" fold="1" page="1" pageScale="1" pageWidth="827" pageHeight="1169" math="0" shadow="0">
      <root>
        <mxCell id="0" />
        <mxCell id="1" parent="0" />
        <mxCell id="vLl26UxzJhjUJ7lKuwkY-1" value="Винсент Ван Гог" style="ellipse;whiteSpace=wrap;html=1;aspect=fixed;" vertex="1" parent="1">
          <mxGeometry x="70" y="90" width="130" height="130" as="geometry" />
        </mxCell>
        <mxCell id="vLl26UxzJhjUJ7lKuwkY-2" value="1" style="ellipse;whiteSpace=wrap;html=1;aspect=fixed;" vertex="1" parent="1">
          <mxGeometry x="110" y="90" width="40" height="40" as="geometry" />
        </mxCell>
        <mxCell id="eDyiavgwzyVO3NAy7V2X-1" value="Казимир&amp;nbsp;&lt;div&gt;Северинович&lt;/div&gt;&lt;div&gt;&amp;nbsp;Малевич&lt;/div&gt;" style="ellipse;whiteSpace=wrap;html=1;aspect=fixed;" vertex="1" parent="1">
          <mxGeometry x="250" y="90" width="130" height="130" as="geometry" />
        </mxCell>
        <mxCell id="eDyiavgwzyVO3NAy7V2X-2" value="2" style="ellipse;whiteSpace=wrap;html=1;aspect=fixed;" vertex="1" parent="1">
          <mxGeometry x="290" y="90" width="40" height="40" as="geometry" />
        </mxCell>
        <mxCell id="eDyiavgwzyVO3NAy7V2X-3" value="Густав Климт" style="ellipse;whiteSpace=wrap;html=1;aspect=fixed;" vertex="1" parent="1">
          <mxGeometry x="440" y="90" width="130" height="130" as="geometry" />
        </mxCell>
        <mxCell id="eDyiavgwzyVO3NAy7V2X-4" value="3" style="ellipse;whiteSpace=wrap;html=1;aspect=fixed;" vertex="1" parent="1">
          <mxGeometry x="480" y="90" width="40" height="40" as="geometry" />
        </mxCell>
        <mxCell id="eDyiavgwzyVO3NAy7V2X-5" value="Пабло Пикассо" style="ellipse;whiteSpace=wrap;html=1;aspect=fixed;" vertex="1" parent="1">
          <mxGeometry x="160" y="270" width="130" height="130" as="geometry" />
        </mxCell>
        <mxCell id="eDyiavgwzyVO3NAy7V2X-6" value="4" style="ellipse;whiteSpace=wrap;html=1;aspect=fixed;" vertex="1" parent="1">
          <mxGeometry x="200" y="270" width="40" height="40" as="geometry" />
        </mxCell>
      </root>
    </mxGraphModel>
  </diagram>
  <diagram id="ferKUm3_D6X0zunsNV4l" name="Жанры">
    <mxGraphModel dx="1034" dy="570" grid="1" gridSize="10" guides="1" tooltips="1" connect="1" arrows="1" fold="1" page="1" pageScale="1" pageWidth="827" pageHeight="1169" math="0" shadow="0">
      <root>
        <mxCell id="0" />
        <mxCell id="1" parent="0" />
        <mxCell id="q6-Xes0sQ3mbuVzSBnGK-1" value="Живопись" style="shape=hexagon;perimeter=hexagonPerimeter2;whiteSpace=wrap;html=1;fixedSize=1;" vertex="1" parent="1">
          <mxGeometry x="50" y="60" width="170" height="120" as="geometry" />
        </mxCell>
        <mxCell id="q6-Xes0sQ3mbuVzSBnGK-2" value="1" style="shape=hexagon;perimeter=hexagonPerimeter2;whiteSpace=wrap;html=1;fixedSize=1;size=25;" vertex="1" parent="1">
          <mxGeometry x="92.5" y="60" width="85" height="40" as="geometry" />
        </mxCell>
        <mxCell id="q6-Xes0sQ3mbuVzSBnGK-7" value="Натюрморт" style="shape=hexagon;perimeter=hexagonPerimeter2;whiteSpace=wrap;html=1;fixedSize=1;" vertex="1" parent="1">
          <mxGeometry x="300" y="60" width="170" height="120" as="geometry" />
        </mxCell>
        <mxCell id="q6-Xes0sQ3mbuVzSBnGK-8" value="2" style="shape=hexagon;perimeter=hexagonPerimeter2;whiteSpace=wrap;html=1;fixedSize=1;size=25;" vertex="1" parent="1">
          <mxGeometry x="342.5" y="60" width="85" height="40" as="geometry" />
        </mxCell>
        <mxCell id="q6-Xes0sQ3mbuVzSBnGK-10" value="Портрет" style="shape=hexagon;perimeter=hexagonPerimeter2;whiteSpace=wrap;html=1;fixedSize=1;" vertex="1" parent="1">
          <mxGeometry x="530" y="60" width="170" height="120" as="geometry" />
        </mxCell>
        <mxCell id="q6-Xes0sQ3mbuVzSBnGK-11" value="3" style="shape=hexagon;perimeter=hexagonPerimeter2;whiteSpace=wrap;html=1;fixedSize=1;size=25;" vertex="1" parent="1">
          <mxGeometry x="572.5" y="60" width="85" height="40" as="geometry" />
        </mxCell>
        <mxCell id="_oV3CqpARseyPGtFwuqG-1" value="Пейзаж" style="shape=hexagon;perimeter=hexagonPerimeter2;whiteSpace=wrap;html=1;fixedSize=1;" vertex="1" parent="1">
          <mxGeometry x="290" y="260" width="170" height="120" as="geometry" />
        </mxCell>
        <mxCell id="_oV3CqpARseyPGtFwuqG-2" value="4" style="shape=hexagon;perimeter=hexagonPerimeter2;whiteSpace=wrap;html=1;fixedSize=1;size=25;" vertex="1" parent="1">
          <mxGeometry x="332.5" y="260" width="85" height="40" as="geometry" />
        </mxCell>
        <mxCell id="5D8XnwKoH5noTkoTQFfa-1" value="Абстракция" style="shape=hexagon;perimeter=hexagonPerimeter2;whiteSpace=wrap;html=1;fixedSize=1;" vertex="1" parent="1">
          <mxGeometry x="520" y="260" width="170" height="120" as="geometry" />
        </mxCell>
        <mxCell id="5D8XnwKoH5noTkoTQFfa-2" value="5" style="shape=hexagon;perimeter=hexagonPerimeter2;whiteSpace=wrap;html=1;fixedSize=1;size=25;" vertex="1" parent="1">
          <mxGeometry x="562.5" y="260" width="85" height="40" as="geometry" />
        </mxCell>
      </root>
    </mxGraphModel>
  </diagram>
  <diagram id="Cs920aJPMkb7Kj4-482R" name="Стиль">
    <mxGraphModel dx="1034" dy="570" grid="1" gridSize="10" guides="1" tooltips="1" connect="1" arrows="1" fold="1" page="1" pageScale="1" pageWidth="827" pageHeight="1169" math="0" shadow="0">
      <root>
        <mxCell id="0" />
        <mxCell id="1" parent="0" />
        <mxCell id="-tSjpG99DgJdEFD1Gfcm-1" value="Импрессионизм" style="ellipse;shape=cloud;whiteSpace=wrap;html=1;" vertex="1" parent="1">
          <mxGeometry x="90" y="120" width="240" height="150" as="geometry" />
        </mxCell>
        <mxCell id="-tSjpG99DgJdEFD1Gfcm-2" value="1" style="ellipse;shape=cloud;whiteSpace=wrap;html=1;" vertex="1" parent="1">
          <mxGeometry x="150" y="140" width="80" height="50" as="geometry" />
        </mxCell>
        <mxCell id="-tSjpG99DgJdEFD1Gfcm-3" value="Постимпрессионизме" style="ellipse;shape=cloud;whiteSpace=wrap;html=1;" vertex="1" parent="1">
          <mxGeometry x="370" y="130" width="240" height="150" as="geometry" />
        </mxCell>
        <mxCell id="-tSjpG99DgJdEFD1Gfcm-4" value="2" style="ellipse;shape=cloud;whiteSpace=wrap;html=1;" vertex="1" parent="1">
          <mxGeometry x="430" y="150" width="80" height="50" as="geometry" />
        </mxCell>
        <mxCell id="-tSjpG99DgJdEFD1Gfcm-5" value="Экспрессионизм" style="ellipse;shape=cloud;whiteSpace=wrap;html=1;" vertex="1" parent="1">
          <mxGeometry x="80" y="320" width="240" height="150" as="geometry" />
        </mxCell>
        <mxCell id="-tSjpG99DgJdEFD1Gfcm-6" value="4" style="ellipse;shape=cloud;whiteSpace=wrap;html=1;" vertex="1" parent="1">
          <mxGeometry x="150" y="340" width="80" height="50" as="geometry" />
        </mxCell>
        <mxCell id="-tSjpG99DgJdEFD1Gfcm-7" value="&lt;p&gt;Сюрреализм&lt;/p&gt;" style="ellipse;shape=cloud;whiteSpace=wrap;html=1;" vertex="1" parent="1">
          <mxGeometry x="370" y="340" width="240" height="150" as="geometry" />
        </mxCell>
        <mxCell id="-tSjpG99DgJdEFD1Gfcm-8" value="5" style="ellipse;shape=cloud;whiteSpace=wrap;html=1;" vertex="1" parent="1">
          <mxGeometry x="450" y="360" width="80" height="50" as="geometry" />
        </mxCell>
        <mxCell id="-tSjpG99DgJdEFD1Gfcm-9" value="Кубизм" style="ellipse;shape=cloud;whiteSpace=wrap;html=1;" vertex="1" parent="1">
          <mxGeometry x="670" y="340" width="240" height="150" as="geometry" />
        </mxCell>
        <mxCell id="-tSjpG99DgJdEFD1Gfcm-10" value="6" style="ellipse;shape=cloud;whiteSpace=wrap;html=1;" vertex="1" parent="1">
          <mxGeometry x="740" y="360" width="80" height="50" as="geometry" />
        </mxCell>
        <mxCell id="-tSjpG99DgJdEFD1Gfcm-11" value="Супрематизм" style="ellipse;shape=cloud;whiteSpace=wrap;html=1;" vertex="1" parent="1">
          <mxGeometry x="640" y="130" width="240" height="150" as="geometry" />
        </mxCell>
        <mxCell id="-tSjpG99DgJdEFD1Gfcm-12" value="3" style="ellipse;shape=cloud;whiteSpace=wrap;html=1;" vertex="1" parent="1">
          <mxGeometry x="700" y="150" width="80" height="50" as="geometry" />
        </mxCell>
        <mxCell id="iwVzrl4WAW35eBmo6fVD-1" value="Модерн" style="ellipse;shape=cloud;whiteSpace=wrap;html=1;" vertex="1" parent="1">
          <mxGeometry x="70" y="500" width="240" height="150" as="geometry" />
        </mxCell>
        <mxCell id="iwVzrl4WAW35eBmo6fVD-2" value="7" style="ellipse;shape=cloud;whiteSpace=wrap;html=1;" vertex="1" parent="1">
          <mxGeometry x="140" y="520" width="80" height="50" as="geometry" />
        </mxCell>
      </root>
    </mxGraphModel>
  </diagram>
  <diagram id="5VpZfBPCgL20hUIPjxNy" name="Ребро Картина - Автор">
    <mxGraphModel dx="1477" dy="814" grid="1" gridSize="10" guides="1" tooltips="1" connect="1" arrows="1" fold="1" page="1" pageScale="1" pageWidth="827" pageHeight="1169" math="0" shadow="0">
      <root>
        <mxCell id="0" />
        <mxCell id="1" parent="0" />
        <mxCell id="ZqtReHdcxIeJgNHGnmkO-10" style="edgeStyle=orthogonalEdgeStyle;rounded=0;orthogonalLoop=1;jettySize=auto;html=1;entryX=0.5;entryY=0;entryDx=0;entryDy=0;" edge="1" parent="1" source="f5k9DVG_ur_zWbwFWIy8-1" target="ZqtReHdcxIeJgNHGnmkO-2">
          <mxGeometry relative="1" as="geometry" />
        </mxCell>
        <mxCell id="f5k9DVG_ur_zWbwFWIy8-1" value="Подсолнухи&lt;div&gt;1887&lt;/div&gt;" style="whiteSpace=wrap;html=1;aspect=fixed;" vertex="1" parent="1">
          <mxGeometry x="110" y="250" width="120" height="120" as="geometry" />
        </mxCell>
        <mxCell id="f5k9DVG_ur_zWbwFWIy8-2" value="1" style="rounded=0;whiteSpace=wrap;html=1;" vertex="1" parent="1">
          <mxGeometry x="140" y="250" width="60" height="30" as="geometry" />
        </mxCell>
        <mxCell id="ZqtReHdcxIeJgNHGnmkO-11" style="edgeStyle=orthogonalEdgeStyle;rounded=0;orthogonalLoop=1;jettySize=auto;html=1;entryX=0;entryY=0.5;entryDx=0;entryDy=0;" edge="1" parent="1" source="f5k9DVG_ur_zWbwFWIy8-3" target="ZqtReHdcxIeJgNHGnmkO-1">
          <mxGeometry relative="1" as="geometry" />
        </mxCell>
        <mxCell id="ZqtReHdcxIeJgNHGnmkO-14" value="Принадлежит" style="edgeLabel;html=1;align=center;verticalAlign=middle;resizable=0;points=[];" vertex="1" connectable="0" parent="ZqtReHdcxIeJgNHGnmkO-11">
          <mxGeometry x="-0.6" y="-3" relative="1" as="geometry">
            <mxPoint x="-1" as="offset" />
          </mxGeometry>
        </mxCell>
        <mxCell id="f5k9DVG_ur_zWbwFWIy8-3" value="Ночное кафе&lt;div&gt;1888&lt;/div&gt;" style="whiteSpace=wrap;html=1;aspect=fixed;" vertex="1" parent="1">
          <mxGeometry x="110" y="400" width="120" height="120" as="geometry" />
        </mxCell>
        <mxCell id="f5k9DVG_ur_zWbwFWIy8-4" value="2" style="rounded=0;whiteSpace=wrap;html=1;" vertex="1" parent="1">
          <mxGeometry x="140" y="400" width="60" height="30" as="geometry" />
        </mxCell>
        <mxCell id="ZqtReHdcxIeJgNHGnmkO-19" style="edgeStyle=orthogonalEdgeStyle;rounded=0;orthogonalLoop=1;jettySize=auto;html=1;" edge="1" parent="1" source="f5k9DVG_ur_zWbwFWIy8-5" target="ZqtReHdcxIeJgNHGnmkO-4">
          <mxGeometry relative="1" as="geometry" />
        </mxCell>
        <mxCell id="ZqtReHdcxIeJgNHGnmkO-20" value="Принадлежит" style="edgeLabel;html=1;align=center;verticalAlign=middle;resizable=0;points=[];" vertex="1" connectable="0" parent="ZqtReHdcxIeJgNHGnmkO-19">
          <mxGeometry x="-0.7528" y="4" relative="1" as="geometry">
            <mxPoint x="-1" as="offset" />
          </mxGeometry>
        </mxCell>
        <mxCell id="f5k9DVG_ur_zWbwFWIy8-5" value="&lt;div&gt;Супрематическая композиция&lt;/div&gt;&lt;div&gt;1916&lt;/div&gt;" style="whiteSpace=wrap;html=1;aspect=fixed;" vertex="1" parent="1">
          <mxGeometry x="430" y="130" width="120" height="120" as="geometry" />
        </mxCell>
        <mxCell id="f5k9DVG_ur_zWbwFWIy8-6" value="3" style="rounded=0;whiteSpace=wrap;html=1;" vertex="1" parent="1">
          <mxGeometry x="460" y="130" width="60" height="30" as="geometry" />
        </mxCell>
        <mxCell id="ZqtReHdcxIeJgNHGnmkO-24" style="edgeStyle=orthogonalEdgeStyle;rounded=0;orthogonalLoop=1;jettySize=auto;html=1;entryX=1;entryY=0.5;entryDx=0;entryDy=0;" edge="1" parent="1" source="f5k9DVG_ur_zWbwFWIy8-7" target="ZqtReHdcxIeJgNHGnmkO-5">
          <mxGeometry relative="1" as="geometry" />
        </mxCell>
        <mxCell id="ZqtReHdcxIeJgNHGnmkO-25" value="Принадлежит" style="edgeLabel;html=1;align=center;verticalAlign=middle;resizable=0;points=[];" vertex="1" connectable="0" parent="ZqtReHdcxIeJgNHGnmkO-24">
          <mxGeometry x="-0.4836" y="-3" relative="1" as="geometry">
            <mxPoint as="offset" />
          </mxGeometry>
        </mxCell>
        <mxCell id="f5k9DVG_ur_zWbwFWIy8-7" value="Розовый сад&lt;br&gt;1912" style="whiteSpace=wrap;html=1;aspect=fixed;" vertex="1" parent="1">
          <mxGeometry x="910" y="150" width="120" height="120" as="geometry" />
        </mxCell>
        <mxCell id="f5k9DVG_ur_zWbwFWIy8-8" value="5" style="rounded=0;whiteSpace=wrap;html=1;" vertex="1" parent="1">
          <mxGeometry x="940" y="150" width="60" height="30" as="geometry" />
        </mxCell>
        <mxCell id="ZqtReHdcxIeJgNHGnmkO-26" style="edgeStyle=orthogonalEdgeStyle;rounded=0;orthogonalLoop=1;jettySize=auto;html=1;entryX=1;entryY=0.5;entryDx=0;entryDy=0;" edge="1" parent="1" source="f5k9DVG_ur_zWbwFWIy8-9" target="ZqtReHdcxIeJgNHGnmkO-7">
          <mxGeometry relative="1" as="geometry" />
        </mxCell>
        <mxCell id="ZqtReHdcxIeJgNHGnmkO-27" value="Принадлежит" style="edgeLabel;html=1;align=center;verticalAlign=middle;resizable=0;points=[];" vertex="1" connectable="0" parent="ZqtReHdcxIeJgNHGnmkO-26">
          <mxGeometry x="0.487" y="4" relative="1" as="geometry">
            <mxPoint as="offset" />
          </mxGeometry>
        </mxCell>
        <mxCell id="f5k9DVG_ur_zWbwFWIy8-9" value="Герника&lt;br&gt;1937" style="whiteSpace=wrap;html=1;aspect=fixed;" vertex="1" parent="1">
          <mxGeometry x="1060" y="130" width="120" height="120" as="geometry" />
        </mxCell>
        <mxCell id="f5k9DVG_ur_zWbwFWIy8-10" value="6" style="rounded=0;whiteSpace=wrap;html=1;" vertex="1" parent="1">
          <mxGeometry x="1090" y="130" width="60" height="30" as="geometry" />
        </mxCell>
        <mxCell id="ZqtReHdcxIeJgNHGnmkO-21" style="edgeStyle=orthogonalEdgeStyle;rounded=0;orthogonalLoop=1;jettySize=auto;html=1;entryX=0.5;entryY=0;entryDx=0;entryDy=0;" edge="1" parent="1" source="wUK2nFHiTM_GuOkUOLOm-1" target="ZqtReHdcxIeJgNHGnmkO-6">
          <mxGeometry relative="1" as="geometry" />
        </mxCell>
        <mxCell id="ZqtReHdcxIeJgNHGnmkO-22" value="Принадлежит" style="edgeLabel;html=1;align=center;verticalAlign=middle;resizable=0;points=[];" vertex="1" connectable="0" parent="ZqtReHdcxIeJgNHGnmkO-21">
          <mxGeometry x="-0.845" y="1" relative="1" as="geometry">
            <mxPoint x="46" y="150" as="offset" />
          </mxGeometry>
        </mxCell>
        <mxCell id="wUK2nFHiTM_GuOkUOLOm-1" value="Золотые рыбки&lt;br&gt;1902" style="whiteSpace=wrap;html=1;aspect=fixed;" vertex="1" parent="1">
          <mxGeometry x="680" y="130" width="120" height="120" as="geometry" />
        </mxCell>
        <mxCell id="wUK2nFHiTM_GuOkUOLOm-2" value="4" style="rounded=0;whiteSpace=wrap;html=1;" vertex="1" parent="1">
          <mxGeometry x="710" y="130" width="60" height="30" as="geometry" />
        </mxCell>
        <mxCell id="ZqtReHdcxIeJgNHGnmkO-12" style="edgeStyle=orthogonalEdgeStyle;rounded=0;orthogonalLoop=1;jettySize=auto;html=1;entryX=0.5;entryY=1;entryDx=0;entryDy=0;" edge="1" parent="1" source="wUK2nFHiTM_GuOkUOLOm-3" target="ZqtReHdcxIeJgNHGnmkO-1">
          <mxGeometry relative="1" as="geometry" />
        </mxCell>
        <mxCell id="wUK2nFHiTM_GuOkUOLOm-3" value="&lt;span style=&quot;color: rgb(32, 33, 34); text-align: start; background-color: rgb(255, 255, 255);&quot;&gt;&lt;font face=&quot;Helvetica&quot;&gt;Автопортрет с отрезанным ухом и трубкой&lt;br&gt;1889&lt;/font&gt;&lt;/span&gt;" style="whiteSpace=wrap;html=1;aspect=fixed;" vertex="1" parent="1">
          <mxGeometry x="110" y="540" width="120" height="120" as="geometry" />
        </mxCell>
        <mxCell id="wUK2nFHiTM_GuOkUOLOm-4" value="7" style="rounded=0;whiteSpace=wrap;html=1;" vertex="1" parent="1">
          <mxGeometry x="140" y="540" width="60" height="30" as="geometry" />
        </mxCell>
        <mxCell id="ZqtReHdcxIeJgNHGnmkO-1" value="Винсент Ван Гог" style="ellipse;whiteSpace=wrap;html=1;aspect=fixed;" vertex="1" parent="1">
          <mxGeometry x="410" y="450" width="130" height="130" as="geometry" />
        </mxCell>
        <mxCell id="ZqtReHdcxIeJgNHGnmkO-2" value="1" style="ellipse;whiteSpace=wrap;html=1;aspect=fixed;" vertex="1" parent="1">
          <mxGeometry x="450" y="450" width="40" height="40" as="geometry" />
        </mxCell>
        <mxCell id="ZqtReHdcxIeJgNHGnmkO-3" value="Казимир&amp;nbsp;&lt;div&gt;Северинович&lt;/div&gt;&lt;div&gt;&amp;nbsp;Малевич&lt;/div&gt;" style="ellipse;whiteSpace=wrap;html=1;aspect=fixed;" vertex="1" parent="1">
          <mxGeometry x="585" y="450" width="130" height="130" as="geometry" />
        </mxCell>
        <mxCell id="ZqtReHdcxIeJgNHGnmkO-4" value="2" style="ellipse;whiteSpace=wrap;html=1;aspect=fixed;" vertex="1" parent="1">
          <mxGeometry x="630" y="450" width="40" height="40" as="geometry" />
        </mxCell>
        <mxCell id="ZqtReHdcxIeJgNHGnmkO-5" value="Густав Климт" style="ellipse;whiteSpace=wrap;html=1;aspect=fixed;" vertex="1" parent="1">
          <mxGeometry x="780" y="450" width="130" height="130" as="geometry" />
        </mxCell>
        <mxCell id="ZqtReHdcxIeJgNHGnmkO-6" value="3" style="ellipse;whiteSpace=wrap;html=1;aspect=fixed;" vertex="1" parent="1">
          <mxGeometry x="820" y="450" width="40" height="40" as="geometry" />
        </mxCell>
        <mxCell id="ZqtReHdcxIeJgNHGnmkO-7" value="Пабло Пикассо" style="ellipse;whiteSpace=wrap;html=1;aspect=fixed;" vertex="1" parent="1">
          <mxGeometry x="1070" y="450" width="130" height="130" as="geometry" />
        </mxCell>
        <mxCell id="ZqtReHdcxIeJgNHGnmkO-8" value="4" style="ellipse;whiteSpace=wrap;html=1;aspect=fixed;" vertex="1" parent="1">
          <mxGeometry x="1110" y="450" width="40" height="40" as="geometry" />
        </mxCell>
        <mxCell id="ZqtReHdcxIeJgNHGnmkO-13" value="Принадлежит" style="text;html=1;align=center;verticalAlign=middle;resizable=0;points=[];autosize=1;strokeColor=none;fillColor=none;" vertex="1" parent="1">
          <mxGeometry x="290" y="288" width="100" height="30" as="geometry" />
        </mxCell>
        <mxCell id="ZqtReHdcxIeJgNHGnmkO-15" value="Принадлежит" style="text;html=1;align=center;verticalAlign=middle;resizable=0;points=[];autosize=1;strokeColor=none;fillColor=none;" vertex="1" parent="1">
          <mxGeometry x="240" y="578" width="100" height="30" as="geometry" />
        </mxCell>
      </root>
    </mxGraphModel>
  </diagram>
  <diagram id="vj0tpDDGDaYDBzfKbQgI" name="Ребро Картина - Жанр">
    <mxGraphModel dx="2206" dy="760" grid="1" gridSize="10" guides="1" tooltips="1" connect="1" arrows="1" fold="1" page="1" pageScale="1" pageWidth="827" pageHeight="1169" math="0" shadow="0">
      <root>
        <mxCell id="0" />
        <mxCell id="1" parent="0" />
        <mxCell id="f8PpHLt1ydP6wtwbgvXT-9" style="edgeStyle=orthogonalEdgeStyle;rounded=0;orthogonalLoop=1;jettySize=auto;html=1;entryX=0;entryY=0.25;entryDx=0;entryDy=0;" edge="1" parent="1" source="G7ZhGMJQYCDTN0KXg-eJ-1" target="f8PpHLt1ydP6wtwbgvXT-3">
          <mxGeometry relative="1" as="geometry">
            <Array as="points">
              <mxPoint x="160" y="350" />
              <mxPoint x="469" y="350" />
            </Array>
          </mxGeometry>
        </mxCell>
        <mxCell id="f8PpHLt1ydP6wtwbgvXT-10" value="Относится к" style="edgeLabel;html=1;align=center;verticalAlign=middle;resizable=0;points=[];" vertex="1" connectable="0" parent="f8PpHLt1ydP6wtwbgvXT-9">
          <mxGeometry x="0.4715" y="-3" relative="1" as="geometry">
            <mxPoint as="offset" />
          </mxGeometry>
        </mxCell>
        <mxCell id="G7ZhGMJQYCDTN0KXg-eJ-1" value="Подсолнухи&lt;div&gt;1887&lt;/div&gt;" style="whiteSpace=wrap;html=1;aspect=fixed;" vertex="1" parent="1">
          <mxGeometry x="100" y="130" width="120" height="120" as="geometry" />
        </mxCell>
        <mxCell id="G7ZhGMJQYCDTN0KXg-eJ-2" value="1" style="rounded=0;whiteSpace=wrap;html=1;" vertex="1" parent="1">
          <mxGeometry x="130" y="130" width="60" height="30" as="geometry" />
        </mxCell>
        <mxCell id="f8PpHLt1ydP6wtwbgvXT-11" style="edgeStyle=orthogonalEdgeStyle;rounded=0;orthogonalLoop=1;jettySize=auto;html=1;entryX=0.5;entryY=1;entryDx=0;entryDy=0;" edge="1" parent="1" source="G7ZhGMJQYCDTN0KXg-eJ-3" target="f8PpHLt1ydP6wtwbgvXT-1">
          <mxGeometry relative="1" as="geometry" />
        </mxCell>
        <mxCell id="f8PpHLt1ydP6wtwbgvXT-12" value="Относится к" style="edgeLabel;html=1;align=center;verticalAlign=middle;resizable=0;points=[];" vertex="1" connectable="0" parent="f8PpHLt1ydP6wtwbgvXT-11">
          <mxGeometry x="-0.0298" y="1" relative="1" as="geometry">
            <mxPoint x="-522" y="550" as="offset" />
          </mxGeometry>
        </mxCell>
        <mxCell id="2YAzaCiUSuZmI91LDh5D-11" value="&lt;span style=&quot;font-size: 12px; background-color: light-dark(rgb(27, 29, 30), rgb(0, 0, 0));&quot;&gt;Относится к&lt;/span&gt;" style="edgeLabel;html=1;align=center;verticalAlign=middle;resizable=0;points=[];" vertex="1" connectable="0" parent="f8PpHLt1ydP6wtwbgvXT-11">
          <mxGeometry x="-0.0851" y="-1" relative="1" as="geometry">
            <mxPoint as="offset" />
          </mxGeometry>
        </mxCell>
        <mxCell id="G7ZhGMJQYCDTN0KXg-eJ-3" value="Ночное кафе&lt;div&gt;1888&lt;/div&gt;" style="whiteSpace=wrap;html=1;aspect=fixed;" vertex="1" parent="1">
          <mxGeometry x="90" y="650" width="120" height="120" as="geometry" />
        </mxCell>
        <mxCell id="G7ZhGMJQYCDTN0KXg-eJ-4" value="2" style="rounded=0;whiteSpace=wrap;html=1;" vertex="1" parent="1">
          <mxGeometry x="120" y="650" width="60" height="30" as="geometry" />
        </mxCell>
        <mxCell id="2YAzaCiUSuZmI91LDh5D-3" style="edgeStyle=orthogonalEdgeStyle;rounded=0;orthogonalLoop=1;jettySize=auto;html=1;entryX=0.5;entryY=0;entryDx=0;entryDy=0;" edge="1" parent="1" source="G7ZhGMJQYCDTN0KXg-eJ-5" target="2YAzaCiUSuZmI91LDh5D-1">
          <mxGeometry relative="1" as="geometry">
            <Array as="points">
              <mxPoint x="440" y="110" />
              <mxPoint x="440" y="138" />
            </Array>
          </mxGeometry>
        </mxCell>
        <mxCell id="G7ZhGMJQYCDTN0KXg-eJ-5" value="&lt;div&gt;Супрематическая композиция&lt;/div&gt;&lt;div&gt;1916&lt;/div&gt;" style="whiteSpace=wrap;html=1;aspect=fixed;" vertex="1" parent="1">
          <mxGeometry x="597.5" y="90" width="120" height="120" as="geometry" />
        </mxCell>
        <mxCell id="G7ZhGMJQYCDTN0KXg-eJ-6" value="3" style="rounded=0;whiteSpace=wrap;html=1;" vertex="1" parent="1">
          <mxGeometry x="627.5" y="90" width="60" height="30" as="geometry" />
        </mxCell>
        <mxCell id="2YAzaCiUSuZmI91LDh5D-5" style="edgeStyle=orthogonalEdgeStyle;rounded=0;orthogonalLoop=1;jettySize=auto;html=1;entryX=0.5;entryY=0;entryDx=0;entryDy=0;" edge="1" parent="1" source="G7ZhGMJQYCDTN0KXg-eJ-7" target="f8PpHLt1ydP6wtwbgvXT-2">
          <mxGeometry relative="1" as="geometry" />
        </mxCell>
        <mxCell id="2YAzaCiUSuZmI91LDh5D-14" value="Относится к" style="edgeLabel;html=1;align=center;verticalAlign=middle;resizable=0;points=[];" vertex="1" connectable="0" parent="2YAzaCiUSuZmI91LDh5D-5">
          <mxGeometry x="-0.3592" y="1" relative="1" as="geometry">
            <mxPoint x="-1" as="offset" />
          </mxGeometry>
        </mxCell>
        <mxCell id="G7ZhGMJQYCDTN0KXg-eJ-7" value="Золотые рыбки&lt;br&gt;1902" style="whiteSpace=wrap;html=1;aspect=fixed;" vertex="1" parent="1">
          <mxGeometry x="-80" y="350" width="120" height="120" as="geometry" />
        </mxCell>
        <mxCell id="G7ZhGMJQYCDTN0KXg-eJ-8" value="4" style="rounded=0;whiteSpace=wrap;html=1;" vertex="1" parent="1">
          <mxGeometry x="-50" y="350" width="60" height="30" as="geometry" />
        </mxCell>
        <mxCell id="f8PpHLt1ydP6wtwbgvXT-20" style="edgeStyle=orthogonalEdgeStyle;rounded=0;orthogonalLoop=1;jettySize=auto;html=1;entryX=0.5;entryY=0;entryDx=0;entryDy=0;" edge="1" parent="1" source="G7ZhGMJQYCDTN0KXg-eJ-9" target="f8PpHLt1ydP6wtwbgvXT-8">
          <mxGeometry relative="1" as="geometry" />
        </mxCell>
        <mxCell id="f8PpHLt1ydP6wtwbgvXT-21" value="Text" style="edgeLabel;html=1;align=center;verticalAlign=middle;resizable=0;points=[];" vertex="1" connectable="0" parent="f8PpHLt1ydP6wtwbgvXT-20">
          <mxGeometry x="0.122" y="-6" relative="1" as="geometry">
            <mxPoint as="offset" />
          </mxGeometry>
        </mxCell>
        <mxCell id="f8PpHLt1ydP6wtwbgvXT-23" value="Относится к" style="edgeLabel;html=1;align=center;verticalAlign=middle;resizable=0;points=[];" vertex="1" connectable="0" parent="f8PpHLt1ydP6wtwbgvXT-20">
          <mxGeometry x="0.1136" y="-2" relative="1" as="geometry">
            <mxPoint as="offset" />
          </mxGeometry>
        </mxCell>
        <mxCell id="G7ZhGMJQYCDTN0KXg-eJ-9" value="Розовый сад&lt;br&gt;1912" style="whiteSpace=wrap;html=1;aspect=fixed;" vertex="1" parent="1">
          <mxGeometry x="860" y="130" width="120" height="120" as="geometry" />
        </mxCell>
        <mxCell id="G7ZhGMJQYCDTN0KXg-eJ-10" value="5" style="rounded=0;whiteSpace=wrap;html=1;" vertex="1" parent="1">
          <mxGeometry x="890" y="130" width="60" height="30" as="geometry" />
        </mxCell>
        <mxCell id="2YAzaCiUSuZmI91LDh5D-13" style="edgeStyle=orthogonalEdgeStyle;rounded=0;orthogonalLoop=1;jettySize=auto;html=1;entryX=0;entryY=0.5;entryDx=0;entryDy=0;" edge="1" parent="1" source="G7ZhGMJQYCDTN0KXg-eJ-11" target="f8PpHLt1ydP6wtwbgvXT-1">
          <mxGeometry relative="1" as="geometry" />
        </mxCell>
        <mxCell id="2YAzaCiUSuZmI91LDh5D-15" value="Относится к" style="edgeLabel;html=1;align=center;verticalAlign=middle;resizable=0;points=[];" vertex="1" connectable="0" parent="2YAzaCiUSuZmI91LDh5D-13">
          <mxGeometry x="-0.6756" y="2" relative="1" as="geometry">
            <mxPoint x="1" as="offset" />
          </mxGeometry>
        </mxCell>
        <mxCell id="G7ZhGMJQYCDTN0KXg-eJ-11" value="Герника&lt;br&gt;1937" style="whiteSpace=wrap;html=1;aspect=fixed;" vertex="1" parent="1">
          <mxGeometry x="-120" y="530" width="120" height="120" as="geometry" />
        </mxCell>
        <mxCell id="G7ZhGMJQYCDTN0KXg-eJ-12" value="6" style="rounded=0;whiteSpace=wrap;html=1;" vertex="1" parent="1">
          <mxGeometry x="-90" y="530" width="60" height="30" as="geometry" />
        </mxCell>
        <mxCell id="f8PpHLt1ydP6wtwbgvXT-13" style="edgeStyle=orthogonalEdgeStyle;rounded=0;orthogonalLoop=1;jettySize=auto;html=1;entryX=0.5;entryY=1;entryDx=0;entryDy=0;" edge="1" parent="1" source="G7ZhGMJQYCDTN0KXg-eJ-13" target="f8PpHLt1ydP6wtwbgvXT-5">
          <mxGeometry relative="1" as="geometry" />
        </mxCell>
        <mxCell id="f8PpHLt1ydP6wtwbgvXT-14" value="Относится к" style="edgeLabel;html=1;align=center;verticalAlign=middle;resizable=0;points=[];" vertex="1" connectable="0" parent="f8PpHLt1ydP6wtwbgvXT-13">
          <mxGeometry x="0.0836" y="-4" relative="1" as="geometry">
            <mxPoint x="-1" as="offset" />
          </mxGeometry>
        </mxCell>
        <mxCell id="G7ZhGMJQYCDTN0KXg-eJ-13" value="&lt;span style=&quot;color: rgb(32, 33, 34); text-align: start; background-color: rgb(255, 255, 255);&quot;&gt;&lt;font face=&quot;Helvetica&quot;&gt;Автопортрет с отрезанным ухом и трубкой&lt;br&gt;1889&lt;/font&gt;&lt;/span&gt;" style="whiteSpace=wrap;html=1;aspect=fixed;" vertex="1" parent="1">
          <mxGeometry x="697.5" y="680" width="120" height="120" as="geometry" />
        </mxCell>
        <mxCell id="G7ZhGMJQYCDTN0KXg-eJ-14" value="7" style="rounded=0;whiteSpace=wrap;html=1;" vertex="1" parent="1">
          <mxGeometry x="727.5" y="680" width="60" height="30" as="geometry" />
        </mxCell>
        <mxCell id="f8PpHLt1ydP6wtwbgvXT-1" value="Живопись" style="shape=hexagon;perimeter=hexagonPerimeter2;whiteSpace=wrap;html=1;fixedSize=1;" vertex="1" parent="1">
          <mxGeometry x="210" y="440" width="170" height="120" as="geometry" />
        </mxCell>
        <mxCell id="f8PpHLt1ydP6wtwbgvXT-2" value="1" style="shape=hexagon;perimeter=hexagonPerimeter2;whiteSpace=wrap;html=1;fixedSize=1;size=25;" vertex="1" parent="1">
          <mxGeometry x="252.5" y="440" width="85" height="40" as="geometry" />
        </mxCell>
        <mxCell id="f8PpHLt1ydP6wtwbgvXT-3" value="Натюрморт" style="shape=hexagon;perimeter=hexagonPerimeter2;whiteSpace=wrap;html=1;fixedSize=1;" vertex="1" parent="1">
          <mxGeometry x="470" y="350" width="170" height="120" as="geometry" />
        </mxCell>
        <mxCell id="f8PpHLt1ydP6wtwbgvXT-4" value="2" style="shape=hexagon;perimeter=hexagonPerimeter2;whiteSpace=wrap;html=1;fixedSize=1;size=25;" vertex="1" parent="1">
          <mxGeometry x="512.5" y="350" width="85" height="40" as="geometry" />
        </mxCell>
        <mxCell id="f8PpHLt1ydP6wtwbgvXT-5" value="Портрет" style="shape=hexagon;perimeter=hexagonPerimeter2;whiteSpace=wrap;html=1;fixedSize=1;" vertex="1" parent="1">
          <mxGeometry x="690" y="440" width="170" height="120" as="geometry" />
        </mxCell>
        <mxCell id="f8PpHLt1ydP6wtwbgvXT-6" value="3" style="shape=hexagon;perimeter=hexagonPerimeter2;whiteSpace=wrap;html=1;fixedSize=1;size=25;" vertex="1" parent="1">
          <mxGeometry x="732.5" y="440" width="85" height="40" as="geometry" />
        </mxCell>
        <mxCell id="f8PpHLt1ydP6wtwbgvXT-7" value="Пейзаж" style="shape=hexagon;perimeter=hexagonPerimeter2;whiteSpace=wrap;html=1;fixedSize=1;" vertex="1" parent="1">
          <mxGeometry x="940" y="440" width="170" height="120" as="geometry" />
        </mxCell>
        <mxCell id="f8PpHLt1ydP6wtwbgvXT-8" value="4" style="shape=hexagon;perimeter=hexagonPerimeter2;whiteSpace=wrap;html=1;fixedSize=1;size=25;" vertex="1" parent="1">
          <mxGeometry x="982.5" y="440" width="85" height="40" as="geometry" />
        </mxCell>
        <mxCell id="f8PpHLt1ydP6wtwbgvXT-17" style="edgeStyle=orthogonalEdgeStyle;rounded=0;orthogonalLoop=1;jettySize=auto;html=1;entryX=1;entryY=0.5;entryDx=0;entryDy=0;" edge="1" parent="1" source="f8PpHLt1ydP6wtwbgvXT-15" target="f8PpHLt1ydP6wtwbgvXT-1">
          <mxGeometry relative="1" as="geometry" />
        </mxCell>
        <mxCell id="f8PpHLt1ydP6wtwbgvXT-19" value="Относится к" style="edgeLabel;html=1;align=center;verticalAlign=middle;resizable=0;points=[];" vertex="1" connectable="0" parent="f8PpHLt1ydP6wtwbgvXT-17">
          <mxGeometry x="-0.476" y="-3" relative="1" as="geometry">
            <mxPoint y="-1" as="offset" />
          </mxGeometry>
        </mxCell>
        <mxCell id="f8PpHLt1ydP6wtwbgvXT-15" value="Золотые рыбки&lt;br&gt;1902" style="whiteSpace=wrap;html=1;aspect=fixed;" vertex="1" parent="1">
          <mxGeometry x="380" y="690" width="120" height="120" as="geometry" />
        </mxCell>
        <mxCell id="f8PpHLt1ydP6wtwbgvXT-16" value="4" style="rounded=0;whiteSpace=wrap;html=1;" vertex="1" parent="1">
          <mxGeometry x="410" y="690" width="60" height="30" as="geometry" />
        </mxCell>
        <mxCell id="2YAzaCiUSuZmI91LDh5D-1" value="Абстракция" style="shape=hexagon;perimeter=hexagonPerimeter2;whiteSpace=wrap;html=1;fixedSize=1;" vertex="1" parent="1">
          <mxGeometry x="360" y="138" width="170" height="120" as="geometry" />
        </mxCell>
        <mxCell id="2YAzaCiUSuZmI91LDh5D-2" value="5" style="shape=hexagon;perimeter=hexagonPerimeter2;whiteSpace=wrap;html=1;fixedSize=1;size=25;" vertex="1" parent="1">
          <mxGeometry x="397.5" y="138" width="85" height="40" as="geometry" />
        </mxCell>
        <mxCell id="2YAzaCiUSuZmI91LDh5D-4" value="&lt;span style=&quot;background-color: light-dark(#ffffff, var(--ge-dark-color, #121212));&quot;&gt;Относится к&lt;/span&gt;" style="text;html=1;align=center;verticalAlign=middle;resizable=0;points=[];autosize=1;strokeColor=none;fillColor=none;" vertex="1" parent="1">
          <mxGeometry x="375" y="98" width="90" height="30" as="geometry" />
        </mxCell>
      </root>
    </mxGraphModel>
  </diagram>
  <diagram id="ycRPT-h67jlrwsJTU2mf" name="Ребро Картина - Стиль">
    <mxGraphModel dx="1723" dy="950" grid="1" gridSize="10" guides="1" tooltips="1" connect="1" arrows="1" fold="1" page="1" pageScale="1" pageWidth="827" pageHeight="1169" math="0" shadow="0">
      <root>
        <mxCell id="0" />
        <mxCell id="1" parent="0" />
        <mxCell id="QrsF9ou6yb_51FCUvtb1-1" value="Подсолнухи&lt;div&gt;1887&lt;/div&gt;" style="whiteSpace=wrap;html=1;aspect=fixed;" parent="1" vertex="1">
          <mxGeometry x="100" y="130" width="120" height="120" as="geometry" />
        </mxCell>
        <mxCell id="QrsF9ou6yb_51FCUvtb1-2" value="1" style="rounded=0;whiteSpace=wrap;html=1;" parent="1" vertex="1">
          <mxGeometry x="130" y="130" width="60" height="30" as="geometry" />
        </mxCell>
        <mxCell id="QrsF9ou6yb_51FCUvtb1-3" value="Ночное кафе&lt;div&gt;1888&lt;/div&gt;" style="whiteSpace=wrap;html=1;aspect=fixed;" parent="1" vertex="1">
          <mxGeometry x="280" y="130" width="120" height="120" as="geometry" />
        </mxCell>
        <mxCell id="QrsF9ou6yb_51FCUvtb1-4" value="2" style="rounded=0;whiteSpace=wrap;html=1;" parent="1" vertex="1">
          <mxGeometry x="310" y="130" width="60" height="30" as="geometry" />
        </mxCell>
        <mxCell id="QrsF9ou6yb_51FCUvtb1-5" value="&lt;div&gt;Супрематическая композиция&lt;/div&gt;&lt;div&gt;1916&lt;/div&gt;" style="whiteSpace=wrap;html=1;aspect=fixed;" parent="1" vertex="1">
          <mxGeometry x="470" y="130" width="120" height="120" as="geometry" />
        </mxCell>
        <mxCell id="QrsF9ou6yb_51FCUvtb1-6" value="3" style="rounded=0;whiteSpace=wrap;html=1;" parent="1" vertex="1">
          <mxGeometry x="500" y="130" width="60" height="30" as="geometry" />
        </mxCell>
        <mxCell id="QrsF9ou6yb_51FCUvtb1-7" value="Золотые рыбки&lt;br&gt;1902" style="whiteSpace=wrap;html=1;aspect=fixed;" parent="1" vertex="1">
          <mxGeometry x="660" y="130" width="120" height="120" as="geometry" />
        </mxCell>
        <mxCell id="QrsF9ou6yb_51FCUvtb1-8" value="4" style="rounded=0;whiteSpace=wrap;html=1;" parent="1" vertex="1">
          <mxGeometry x="690" y="130" width="60" height="30" as="geometry" />
        </mxCell>
        <mxCell id="QrsF9ou6yb_51FCUvtb1-9" value="Розовый сад&lt;br&gt;1912" style="whiteSpace=wrap;html=1;aspect=fixed;" parent="1" vertex="1">
          <mxGeometry x="850" y="130" width="120" height="120" as="geometry" />
        </mxCell>
        <mxCell id="QrsF9ou6yb_51FCUvtb1-10" value="5" style="rounded=0;whiteSpace=wrap;html=1;" parent="1" vertex="1">
          <mxGeometry x="880" y="130" width="60" height="30" as="geometry" />
        </mxCell>
        <mxCell id="QrsF9ou6yb_51FCUvtb1-11" value="Герника&lt;br&gt;1937" style="whiteSpace=wrap;html=1;aspect=fixed;" parent="1" vertex="1">
          <mxGeometry x="1040" y="130" width="120" height="120" as="geometry" />
        </mxCell>
        <mxCell id="QrsF9ou6yb_51FCUvtb1-12" value="6" style="rounded=0;whiteSpace=wrap;html=1;" parent="1" vertex="1">
          <mxGeometry x="1070" y="130" width="60" height="30" as="geometry" />
        </mxCell>
        <mxCell id="QrsF9ou6yb_51FCUvtb1-13" value="&lt;span style=&quot;color: rgb(32, 33, 34); text-align: start; background-color: rgb(255, 255, 255);&quot;&gt;&lt;font face=&quot;Helvetica&quot;&gt;Автопортрет с отрезанным ухом и трубкой&lt;br&gt;1889&lt;/font&gt;&lt;/span&gt;" style="whiteSpace=wrap;html=1;aspect=fixed;" parent="1" vertex="1">
          <mxGeometry x="30" y="610" width="120" height="120" as="geometry" />
        </mxCell>
        <mxCell id="QrsF9ou6yb_51FCUvtb1-14" value="7" style="rounded=0;whiteSpace=wrap;html=1;" parent="1" vertex="1">
          <mxGeometry x="60" y="610" width="60" height="30" as="geometry" />
        </mxCell>
        <mxCell id="X41p2REE7FXUccPfPRgN-1" value="Импрессионизм" style="ellipse;shape=cloud;whiteSpace=wrap;html=1;" parent="1" vertex="1">
          <mxGeometry x="320" y="460" width="240" height="150" as="geometry" />
        </mxCell>
        <mxCell id="X41p2REE7FXUccPfPRgN-2" value="1" style="ellipse;shape=cloud;whiteSpace=wrap;html=1;" parent="1" vertex="1">
          <mxGeometry x="390" y="470" width="80" height="50" as="geometry" />
        </mxCell>
        <mxCell id="X41p2REE7FXUccPfPRgN-3" value="Постимпрессионизме" style="ellipse;shape=cloud;whiteSpace=wrap;html=1;" parent="1" vertex="1">
          <mxGeometry x="60" y="320" width="240" height="150" as="geometry" />
        </mxCell>
        <mxCell id="X41p2REE7FXUccPfPRgN-4" value="2" style="ellipse;shape=cloud;whiteSpace=wrap;html=1;" parent="1" vertex="1">
          <mxGeometry x="130" y="330" width="80" height="50" as="geometry" />
        </mxCell>
        <mxCell id="X41p2REE7FXUccPfPRgN-5" value="Экспрессионизм" style="ellipse;shape=cloud;whiteSpace=wrap;html=1;" parent="1" vertex="1">
          <mxGeometry x="320" y="650" width="240" height="150" as="geometry" />
        </mxCell>
        <mxCell id="X41p2REE7FXUccPfPRgN-6" value="4" style="ellipse;shape=cloud;whiteSpace=wrap;html=1;" parent="1" vertex="1">
          <mxGeometry x="390" y="670" width="80" height="50" as="geometry" />
        </mxCell>
        <mxCell id="X41p2REE7FXUccPfPRgN-7" value="&lt;p&gt;Сюрреализм&lt;/p&gt;" style="ellipse;shape=cloud;whiteSpace=wrap;html=1;" parent="1" vertex="1">
          <mxGeometry x="610" y="670" width="240" height="150" as="geometry" />
        </mxCell>
        <mxCell id="X41p2REE7FXUccPfPRgN-8" value="5" style="ellipse;shape=cloud;whiteSpace=wrap;html=1;" parent="1" vertex="1">
          <mxGeometry x="690" y="690" width="80" height="50" as="geometry" />
        </mxCell>
        <mxCell id="X41p2REE7FXUccPfPRgN-9" value="Кубизм" style="ellipse;shape=cloud;whiteSpace=wrap;html=1;" parent="1" vertex="1">
          <mxGeometry x="910" y="670" width="240" height="150" as="geometry" />
        </mxCell>
        <mxCell id="X41p2REE7FXUccPfPRgN-10" value="6" style="ellipse;shape=cloud;whiteSpace=wrap;html=1;" parent="1" vertex="1">
          <mxGeometry x="980" y="690" width="80" height="50" as="geometry" />
        </mxCell>
        <mxCell id="X41p2REE7FXUccPfPRgN-11" value="Супрематизм" style="ellipse;shape=cloud;whiteSpace=wrap;html=1;" parent="1" vertex="1">
          <mxGeometry x="880" y="460" width="240" height="150" as="geometry" />
        </mxCell>
        <mxCell id="X41p2REE7FXUccPfPRgN-12" value="3" style="ellipse;shape=cloud;whiteSpace=wrap;html=1;" parent="1" vertex="1">
          <mxGeometry x="940" y="480" width="80" height="50" as="geometry" />
        </mxCell>
        <mxCell id="18dy5tMNFc8TnSR9onHb-1" value="Модерн" style="ellipse;shape=cloud;whiteSpace=wrap;html=1;" parent="1" vertex="1">
          <mxGeometry x="630" y="310" width="240" height="150" as="geometry" />
        </mxCell>
        <mxCell id="18dy5tMNFc8TnSR9onHb-2" value="7" style="ellipse;shape=cloud;whiteSpace=wrap;html=1;" parent="1" vertex="1">
          <mxGeometry x="700" y="330" width="80" height="50" as="geometry" />
        </mxCell>
        <mxCell id="18dy5tMNFc8TnSR9onHb-3" style="edgeStyle=orthogonalEdgeStyle;rounded=0;orthogonalLoop=1;jettySize=auto;html=1;entryX=0.546;entryY=0.127;entryDx=0;entryDy=0;entryPerimeter=0;" parent="1" source="QrsF9ou6yb_51FCUvtb1-7" target="18dy5tMNFc8TnSR9onHb-1" edge="1">
          <mxGeometry relative="1" as="geometry" />
        </mxCell>
        <mxCell id="18dy5tMNFc8TnSR9onHb-4" value="Относится к" style="edgeLabel;html=1;align=center;verticalAlign=middle;resizable=0;points=[];" parent="18dy5tMNFc8TnSR9onHb-3" vertex="1" connectable="0">
          <mxGeometry x="0.3042" y="-3" relative="1" as="geometry">
            <mxPoint as="offset" />
          </mxGeometry>
        </mxCell>
        <mxCell id="18dy5tMNFc8TnSR9onHb-5" style="edgeStyle=orthogonalEdgeStyle;rounded=0;orthogonalLoop=1;jettySize=auto;html=1;entryX=0.96;entryY=0.7;entryDx=0;entryDy=0;entryPerimeter=0;" parent="1" source="QrsF9ou6yb_51FCUvtb1-9" target="18dy5tMNFc8TnSR9onHb-1" edge="1">
          <mxGeometry relative="1" as="geometry" />
        </mxCell>
        <mxCell id="18dy5tMNFc8TnSR9onHb-6" value="Относится к" style="edgeLabel;html=1;align=center;verticalAlign=middle;resizable=0;points=[];" parent="18dy5tMNFc8TnSR9onHb-5" vertex="1" connectable="0">
          <mxGeometry x="-0.0789" y="1" relative="1" as="geometry">
            <mxPoint as="offset" />
          </mxGeometry>
        </mxCell>
        <mxCell id="18dy5tMNFc8TnSR9onHb-7" style="edgeStyle=orthogonalEdgeStyle;rounded=0;orthogonalLoop=1;jettySize=auto;html=1;entryX=0.96;entryY=0.7;entryDx=0;entryDy=0;entryPerimeter=0;" parent="1" source="QrsF9ou6yb_51FCUvtb1-11" target="X41p2REE7FXUccPfPRgN-9" edge="1">
          <mxGeometry relative="1" as="geometry">
            <Array as="points">
              <mxPoint x="1220" y="190" />
              <mxPoint x="1220" y="775" />
            </Array>
          </mxGeometry>
        </mxCell>
        <mxCell id="18dy5tMNFc8TnSR9onHb-8" value="Относится к" style="edgeLabel;html=1;align=center;verticalAlign=middle;resizable=0;points=[];" parent="18dy5tMNFc8TnSR9onHb-7" vertex="1" connectable="0">
          <mxGeometry x="0.2072" y="2" relative="1" as="geometry">
            <mxPoint as="offset" />
          </mxGeometry>
        </mxCell>
        <mxCell id="18dy5tMNFc8TnSR9onHb-9" style="edgeStyle=orthogonalEdgeStyle;rounded=0;orthogonalLoop=1;jettySize=auto;html=1;entryX=0.07;entryY=0.4;entryDx=0;entryDy=0;entryPerimeter=0;" parent="1" source="QrsF9ou6yb_51FCUvtb1-1" target="X41p2REE7FXUccPfPRgN-3" edge="1">
          <mxGeometry relative="1" as="geometry" />
        </mxCell>
        <mxCell id="18dy5tMNFc8TnSR9onHb-10" value="Относится к" style="edgeLabel;html=1;align=center;verticalAlign=middle;resizable=0;points=[];" parent="18dy5tMNFc8TnSR9onHb-9" vertex="1" connectable="0">
          <mxGeometry x="0.0635" y="2" relative="1" as="geometry">
            <mxPoint as="offset" />
          </mxGeometry>
        </mxCell>
        <mxCell id="18dy5tMNFc8TnSR9onHb-11" style="edgeStyle=orthogonalEdgeStyle;rounded=0;orthogonalLoop=1;jettySize=auto;html=1;entryX=0.4;entryY=0.1;entryDx=0;entryDy=0;entryPerimeter=0;" parent="1" source="QrsF9ou6yb_51FCUvtb1-3" target="X41p2REE7FXUccPfPRgN-1" edge="1">
          <mxGeometry relative="1" as="geometry" />
        </mxCell>
        <mxCell id="18dy5tMNFc8TnSR9onHb-12" value="Относится к" style="edgeLabel;html=1;align=center;verticalAlign=middle;resizable=0;points=[];" parent="18dy5tMNFc8TnSR9onHb-11" vertex="1" connectable="0">
          <mxGeometry x="-0.0662" y="3" relative="1" as="geometry">
            <mxPoint x="1" as="offset" />
          </mxGeometry>
        </mxCell>
        <mxCell id="18dy5tMNFc8TnSR9onHb-13" style="edgeStyle=orthogonalEdgeStyle;rounded=0;orthogonalLoop=1;jettySize=auto;html=1;entryX=0.13;entryY=0.77;entryDx=0;entryDy=0;entryPerimeter=0;" parent="1" source="QrsF9ou6yb_51FCUvtb1-5" target="X41p2REE7FXUccPfPRgN-11" edge="1">
          <mxGeometry relative="1" as="geometry">
            <Array as="points">
              <mxPoint x="590" y="480" />
              <mxPoint x="860" y="480" />
              <mxPoint x="860" y="576" />
            </Array>
          </mxGeometry>
        </mxCell>
        <mxCell id="18dy5tMNFc8TnSR9onHb-14" value="Относится к" style="edgeLabel;html=1;align=center;verticalAlign=middle;resizable=0;points=[];" parent="18dy5tMNFc8TnSR9onHb-13" vertex="1" connectable="0">
          <mxGeometry x="0.1506" y="-1" relative="1" as="geometry">
            <mxPoint as="offset" />
          </mxGeometry>
        </mxCell>
        <mxCell id="m7kSFQNwgYDnwEsl3hUN-1" style="edgeStyle=orthogonalEdgeStyle;rounded=0;orthogonalLoop=1;jettySize=auto;html=1;entryX=0.55;entryY=0.95;entryDx=0;entryDy=0;entryPerimeter=0;" parent="1" source="QrsF9ou6yb_51FCUvtb1-13" target="X41p2REE7FXUccPfPRgN-3" edge="1">
          <mxGeometry relative="1" as="geometry" />
        </mxCell>
        <mxCell id="m7kSFQNwgYDnwEsl3hUN-2" value="Относится к" style="edgeLabel;html=1;align=center;verticalAlign=middle;resizable=0;points=[];" parent="m7kSFQNwgYDnwEsl3hUN-1" vertex="1" connectable="0">
          <mxGeometry x="-0.0003" y="4" relative="1" as="geometry">
            <mxPoint as="offset" />
          </mxGeometry>
        </mxCell>
      </root>
    </mxGraphModel>
  </diagram>
</mxfile>
